<svg version="1.1" id="Layer_1" xmlns="http://www.w3.org/2000/svg" xmlns:xlink="http://www.w3.org/1999/xlink" x="0px" y="0px"
	 width="100%" viewBox="0 0 400 400" enable-background="new 0 0 400 400" xml:space="preserve">
<path fill="#000000" opacity="1.000000" stroke="none" 
	d="
M185.000000,401.000000 
	C123.352448,401.000000 62.204891,401.000000 1.028667,401.000000 
	C1.028667,267.727448 1.028667,134.454880 1.028667,1.091157 
	C134.230850,1.091157 267.461792,1.091157 400.846375,1.091157 
	C400.846375,134.333191 400.846375,267.666565 400.846375,401.000000 
	C329.121613,401.000000 257.310822,401.000000 185.000000,401.000000 
M136.887390,237.343887 
	C141.843750,234.470078 146.800125,231.596252 152.180222,228.476746 
	C143.425659,223.424149 135.130905,218.824097 127.080872,213.829636 
	C125.511230,212.855804 124.000290,210.362366 123.974297,208.548157 
	C123.740318,192.220734 123.774078,175.887680 123.959740,159.558899 
	C123.977722,157.976776 125.143280,155.727127 126.462471,154.944962 
	C140.635208,146.541885 154.910339,138.308105 169.277176,130.241257 
	C170.634064,129.479385 173.172272,129.513458 174.541245,130.282730 
	C188.760406,138.272934 202.820496,146.545685 217.010986,154.587875 
	C219.337769,155.906540 220.180557,157.327438 220.156418,160.032211 
	C220.013641,176.028488 220.003494,192.027649 220.169769,208.023529 
	C220.202118,211.136108 219.137451,212.756912 216.464767,214.218491 
	C208.305054,218.680634 200.310944,223.445618 191.690170,228.417007 
	C197.654709,231.855728 203.192352,234.816208 208.465775,238.189713 
	C210.981506,239.799103 212.791641,239.528244 215.187424,238.082642 
	C222.309006,233.785583 229.523224,229.632462 236.821457,225.643021 
	C239.339905,224.266342 240.194504,222.629913 240.180145,219.765930 
	C240.061493,196.103363 240.070969,172.439758 240.168640,148.776993 
	C240.180130,145.992996 239.492264,144.320068 236.914932,142.852310 
	C216.233749,131.074615 195.686981,119.060539 174.975311,107.337479 
	C173.377457,106.433060 170.387344,106.404877 168.800583,107.304001 
	C147.949081,119.119354 127.208206,131.131561 106.543037,143.270477 
	C105.205498,144.056152 103.952873,146.276108 103.942116,147.837677 
	C103.775749,171.999527 103.752197,196.163437 103.960648,220.324570 
	C103.975975,222.101303 105.608200,224.512283 107.193100,225.514740 
	C113.938919,229.781433 121.075226,233.431946 127.808395,237.716873 
	C130.904221,239.687027 133.445908,240.013977 136.887390,237.343887 
M298.171814,222.500076 
	C298.177002,209.002319 298.276031,195.503128 298.072205,182.008530 
	C298.045807,180.262787 296.912903,177.808228 295.510742,176.929642 
	C287.900208,172.160812 280.078064,167.723022 272.233154,163.342499 
	C271.150116,162.737732 269.235138,162.530579 268.216400,163.082596 
	C262.232086,166.325256 256.399445,169.847885 249.970657,173.593719 
	C258.634796,178.599426 266.915070,183.194641 274.948273,188.187378 
	C276.513275,189.160049 278.000549,191.665466 278.026978,193.485672 
	C278.261841,209.646301 278.238220,225.812790 278.043640,241.974579 
	C278.022644,243.718399 276.897858,246.223389 275.499420,247.056549 
	C261.344910,255.489319 247.062927,263.711731 232.695694,271.777710 
	C231.339432,272.539154 228.794022,272.481750 227.417542,271.707642 
	C213.202225,263.713226 199.148132,255.432556 184.956314,247.395538 
	C182.602463,246.062500 181.825912,244.605652 181.848206,241.931213 
	C181.981613,225.934921 181.999710,209.935913 181.828125,193.940292 
	C181.794495,190.805054 182.916397,189.222717 185.568665,187.767746 
	C193.775848,183.265533 201.821930,178.469666 210.451584,173.486954 
	C204.259232,169.939560 198.681641,166.962280 193.352356,163.592270 
	C190.967041,162.083908 189.320526,162.427551 187.089066,163.771225 
	C179.822113,168.146988 172.460129,172.372528 165.027939,176.461838 
	C162.699982,177.742676 161.806046,179.182709 161.819931,181.917053 
	C161.940765,205.746033 161.945724,229.576202 161.813400,253.405060 
	C161.797180,256.325317 162.795349,257.818085 165.253036,259.220856 
	C185.776062,270.934723 206.249298,282.736908 226.653519,294.656372 
	C229.124695,296.099945 230.929657,296.244171 233.438995,294.777191 
	C253.986053,282.765137 274.649597,270.951782 295.146210,258.855133 
	C296.676208,257.952148 297.986359,255.344955 298.038574,253.491684 
	C298.320068,243.501175 298.171814,233.498535 298.171814,222.500076 
z"/>
<path fill="#FAFAFA" opacity="1.000000" stroke="none" 
	d="
M136.592712,237.561951 
	C133.445908,240.013977 130.904221,239.687027 127.808395,237.716873 
	C121.075226,233.431946 113.938919,229.781433 107.193100,225.514740 
	C105.608200,224.512283 103.975975,222.101303 103.960648,220.324570 
	C103.752197,196.163437 103.775749,171.999527 103.942116,147.837677 
	C103.952873,146.276108 105.205498,144.056152 106.543037,143.270477 
	C127.208206,131.131561 147.949081,119.119354 168.800583,107.304001 
	C170.387344,106.404877 173.377457,106.433060 174.975311,107.337479 
	C195.686981,119.060539 216.233749,131.074615 236.914932,142.852310 
	C239.492264,144.320068 240.180130,145.992996 240.168640,148.776993 
	C240.070969,172.439758 240.061493,196.103363 240.180145,219.765930 
	C240.194504,222.629913 239.339905,224.266342 236.821457,225.643021 
	C229.523224,229.632462 222.309006,233.785583 215.187424,238.082642 
	C212.791641,239.528244 210.981506,239.799103 208.465775,238.189713 
	C203.192352,234.816208 197.654709,231.855728 191.690170,228.417007 
	C200.310944,223.445618 208.305054,218.680634 216.464767,214.218491 
	C219.137451,212.756912 220.202118,211.136108 220.169769,208.023529 
	C220.003494,192.027649 220.013641,176.028488 220.156418,160.032211 
	C220.180557,157.327438 219.337769,155.906540 217.010986,154.587875 
	C202.820496,146.545685 188.760406,138.272934 174.541245,130.282730 
	C173.172272,129.513458 170.634064,129.479385 169.277176,130.241257 
	C154.910339,138.308105 140.635208,146.541885 126.462471,154.944962 
	C125.143280,155.727127 123.977722,157.976776 123.959740,159.558899 
	C123.774078,175.887680 123.740318,192.220734 123.974297,208.548157 
	C124.000290,210.362366 125.511230,212.855804 127.080872,213.829636 
	C135.130905,218.824097 143.425659,223.424149 152.180222,228.476746 
	C146.800125,231.596252 141.843750,234.470078 136.592712,237.561951 
z"/>
<path fill="#FAFAFA" opacity="1.000000" stroke="none" 
	d="
M298.171814,223.000092 
	C298.171814,233.498535 298.320068,243.501175 298.038574,253.491684 
	C297.986359,255.344955 296.676208,257.952148 295.146210,258.855133 
	C274.649597,270.951782 253.986053,282.765137 233.438995,294.777191 
	C230.929657,296.244171 229.124695,296.099945 226.653519,294.656372 
	C206.249298,282.736908 185.776062,270.934723 165.253036,259.220856 
	C162.795349,257.818085 161.797180,256.325317 161.813400,253.405060 
	C161.945724,229.576202 161.940765,205.746033 161.819931,181.917053 
	C161.806046,179.182709 162.699982,177.742676 165.027939,176.461838 
	C172.460129,172.372528 179.822113,168.146988 187.089066,163.771225 
	C189.320526,162.427551 190.967041,162.083908 193.352356,163.592270 
	C198.681641,166.962280 204.259232,169.939560 210.451584,173.486954 
	C201.821930,178.469666 193.775848,183.265533 185.568665,187.767746 
	C182.916397,189.222717 181.794495,190.805054 181.828125,193.940292 
	C181.999710,209.935913 181.981613,225.934921 181.848206,241.931213 
	C181.825912,244.605652 182.602463,246.062500 184.956314,247.395538 
	C199.148132,255.432556 213.202225,263.713226 227.417542,271.707642 
	C228.794022,272.481750 231.339432,272.539154 232.695694,271.777710 
	C247.062927,263.711731 261.344910,255.489319 275.499420,247.056549 
	C276.897858,246.223389 278.022644,243.718399 278.043640,241.974579 
	C278.238220,225.812790 278.261841,209.646301 278.026978,193.485672 
	C278.000549,191.665466 276.513275,189.160049 274.948273,188.187378 
	C266.915070,183.194641 258.634796,178.599426 249.970657,173.593719 
	C256.399445,169.847885 262.232086,166.325256 268.216400,163.082596 
	C269.235138,162.530579 271.150116,162.737732 272.233154,163.342499 
	C280.078064,167.723022 287.900208,172.160812 295.510742,176.929642 
	C296.912903,177.808228 298.045807,180.262787 298.072205,182.008530 
	C298.276031,195.503128 298.177002,209.002319 298.171814,223.000092 
z"/>
</svg>