<svg version="1.1" id="Layer_1" xmlns="http://www.w3.org/2000/svg" xmlns:xlink="http://www.w3.org/1999/xlink" x="0px" y="0px"
	 width="100%" viewBox="0 0 272 176" enable-background="new 0 0 272 176" xml:space="preserve">
<path fill="#000000" opacity="1.000000" stroke="none" 
	d="
M122.000000,1.000000 
	C132.020889,1.000000 142.041794,1.000000 152.856506,1.169402 
	C155.253433,1.779597 156.849350,2.248771 158.460709,2.657014 
	C194.717056,11.842661 218.820892,34.121132 227.729568,70.516411 
	C236.289978,105.488869 226.646942,135.912003 200.291443,160.837616 
	C193.315765,167.434830 184.857513,171.751221 177.000000,177.000000 
	C151.979111,177.000000 126.958214,177.000000 101.194016,176.799683 
	C99.870628,176.273056 99.306442,175.913803 98.708214,175.625122 
	C62.973137,158.381271 42.337227,120.852707 46.852463,81.308510 
	C50.968674,45.258881 77.468826,14.201164 112.597427,4.110102 
	C115.759163,3.201861 119.210823,3.065776 122.000000,1.000000 
M165.749924,90.779922 
	C131.358093,71.148788 89.028313,93.085472 83.503555,132.317001 
	C82.038696,142.719040 84.728172,148.143356 93.996941,153.231354 
	C98.545731,155.728378 103.405014,157.459625 108.439873,158.632004 
	C125.486771,162.601440 142.715317,162.795471 159.943649,160.358780 
	C168.669327,159.124664 177.220917,156.828293 184.900787,152.190033 
	C190.897293,148.568466 194.260849,143.639572 193.730499,136.172211 
	C192.326416,116.403175 182.926468,101.644524 165.749924,90.779922 
M111.471497,44.147484 
	C111.425720,45.811054 111.333580,47.474842 111.341568,49.138157 
	C111.400803,61.466415 120.772697,73.053841 132.608490,75.459419 
	C145.730133,78.126343 158.570267,71.236649 163.855713,58.692951 
	C168.717346,47.155098 164.471924,32.950817 154.067062,25.942142 
	C137.418564,14.727786 117.332230,22.950834 111.471497,44.147484 
z"/>
</svg>